<svg xmlns:xlink="http://www.w3.org/1999/xlink" xmlns="http://www.w3.org/2000/svg" version="1.1" viewBox="0 0 1024 1024" height="1024px" width="1024px">
    <title>暂无商品</title>
    <defs>
        <linearGradient id="linearGradient-1" y2="63.0775943%" x2="50%" y1="0%" x1="50%">
            <stop offset="0%" stop-opacity="0.397332038" stop-color="#FF9500"></stop>
            <stop offset="64.9556999%" stop-opacity="0.0661697921" stop-color="#FF9200"></stop>
            <stop offset="100%" stop-opacity="0" stop-color="#FF9000"></stop>
        </linearGradient>
        <linearGradient id="linearGradient-2" y2="100%" x2="50%" y1="0%" x1="50%">
            <stop offset="0%" stop-color="#FFC065"></stop>
            <stop offset="100%" stop-color="#FF8C35"></stop>
        </linearGradient>
    </defs>
    <g fill-rule="evenodd" fill="none" stroke-width="1" stroke="none" id="暂无商品">
        <rect height="1024" width="1024" y="0" x="0" fill="#FFFFFF"></rect>
        <g id="编组-2">
            <rect height="1024" width="1024" y="0" x="0" id="矩形"></rect>
            <ellipse ry="150" rx="350" cy="735" cx="512" opacity="0.5" fill="url(#linearGradient-1)" id="椭圆形"></ellipse>
            <g transform="translate(677.988476, 421.007570)" id="编组">
                <path transform="translate(66.372939, 117.459729) rotate(16.000000) translate(-66.372939, -117.459729)" fill="#FFDBAD" id="椭圆形" d="M73.4952866,229.027314 C89.2166164,229.024219 102.01735,182.585394 103.319332,114.779642 C104.621315,46.9738896 94.229671,5.88905003 78.5083411,5.89214517 C62.7870113,5.89524031 29.3291663,54.5658508 29.316698,117.836177 C29.3042379,181.106503 57.7739568,229.030409 73.4952866,229.027314 Z"></path>
                <path opacity="0.8" stroke-width="2" stroke="#FFFFFF" id="路径-42" d="M95.3072235,43.8448836 C72.1141531,81.7983445 57.1956347,112.268957 50.5516683,135.256722 C43.9077019,158.244486 41.2128741,188.715099 42.467185,226.66856"></path>
                <path transform="translate(95.301334, 181.382625) scale(-1, 1) rotate(-34.000000) translate(-95.301334, -181.382625)" fill="#FFB76A" id="椭圆形" d="M113.779255,248.470848 C124.549025,248.474558 123.686282,220.47556 117.755433,174.584664 C111.824584,128.693769 101.246415,114.298113 90.476645,114.294402 C79.7068752,114.290692 64.7072419,145.375678 69.4027966,184.58494 C74.0983513,223.794201 103.009485,248.467137 113.779255,248.470848 Z"></path>
                <path opacity="0.8" stroke-width="2" stroke="#FFFFFF" id="路径-43" d="M118.883233,157.951387 C108.731785,173.572968 97.5215836,187.709379 85.2526274,200.360621 C72.9836712,213.011863 59.8656745,221.781176 45.8986375,226.66856"></path>
            </g>
            <g transform="translate(289.010901, 649.458282) scale(-1, 1) translate(-289.010901, -649.458282) translate(253.866924, 592.101433)" id="编组备份">
                <path transform="translate(30.113387, 53.514046) rotate(16.000000) translate(-30.113387, -53.514046)" fill="#FFDBAD" id="椭圆形" d="M33.4806512,104.384544 C40.58626,104.40285 46.3135652,83.2433038 46.8169343,52.3262361 C47.3203035,21.4091684 42.5720052,2.66187784 35.4663964,2.64354868 C28.3607877,2.62524223 13.2998317,24.7765356 13.373328,53.6271156 C13.4473642,82.4776956 26.3750424,104.366214 33.4806512,104.384544 Z"></path>
                <path opacity="0.8" stroke="#FFFFFF" id="路径-42" d="M43.1916461,19.9106 C32.7173563,37.2306318 25.9799608,51.1358717 22.9794599,61.6263198 C19.9789589,72.1167679 18.7619399,86.0220078 19.3284029,103.34204"></path>
                <path transform="translate(43.226463, 82.683023) scale(-1, 1) rotate(-34.000000) translate(-43.226463, -82.683023)" fill="#FFB76A" id="椭圆形" d="M51.4864769,113.173782 C56.3661861,113.15179 56.0367603,100.417831 53.4502918,79.5565452 C50.8638234,58.6952596 46.1025279,52.1703603 41.2228188,52.1922646 C36.3431096,52.2142794 29.4786131,66.3867855 31.5200482,84.2115208 C33.5614833,102.036256 46.6067678,113.195709 51.4864769,113.173782 Z"></path>
                <path opacity="0.8" stroke="#FFFFFF" id="路径-43" d="M53.8388761,71.9830122 C49.2543515,79.1119083 44.1916797,85.5630484 38.6508608,91.3364325 C33.1100418,97.1098166 27.1857853,101.111686 20.8780911,103.34204"></path>
            </g>
            <g fill-rule="nonzero" transform="translate(466.000000, 512.000000) scale(-1, 1) translate(-466.000000, -512.000000) translate(290.000000, 336.000000)" id="天猫超市-购物车">
                <rect height="352" width="352" y="0" x="0" opacity="0" fill="#000000" id="矩形"></rect>
                <path fill="url(#linearGradient-2)" id="形状" d="M100.92544,257.95968 C90.505536,257.95968 82.057184,266.405216 82.057184,276.827936 C82.057184,287.250656 90.505536,295.696192 100.92544,295.696192 C111.347808,295.696192 119.796512,287.251008 119.793697,276.827936 C119.793697,266.405216 111.347808,257.95968 100.92544,257.95968 Z M216.237472,249.114976 C201.908256,249.114976 190.29296,260.727808 190.29296,275.057024 C190.29296,289.387648 201.908256,301.001536 216.237472,301.001536 C230.566688,301.001536 242.182688,289.387648 242.182688,275.057024 C242.182688,260.727808 230.566688,249.114976 216.237472,249.114976 Z M331.459392,71.449312 L331.459392,66.750816 C331.459392,59.418304 325.103328,53.474784 317.264992,53.474784 L261.826048,53.474784 C261.108672,53.474784 260.410656,53.540608 259.720384,53.637408 C254.425248,53.934496 249.614112,57.390432 247.882272,62.71232 L231.947584,107.89328 L34.008128,107.89328 C26.675616,107.89328 20.728928,113.837856 20.728928,121.170016 L20.728928,125.277152 C20.728928,132.612128 26.675616,138.556352 34.008128,138.556352 L221.130976,138.556352 L214.577088,157.13808 C214.516544,157.13808 214.458464,157.127168 214.398272,157.127168 L48.161344,157.127168 C40.826368,157.127168 34.882496,163.07456 34.882496,170.40672 L34.882496,174.513856 C34.882496,181.846368 40.826368,187.789888 48.161344,187.789888 L203.767168,187.789888 L197.050304,206.828864 L71.104,206.828864 C63.474752,206.828864 57.289056,212.7752 57.289056,220.107712 L57.289056,224.215552 C57.289056,231.54736 63.474752,237.4944 71.104,237.4944 L207.223104,237.4944 C207.60256,237.4944 207.976032,237.466592 208.34704,237.439136 C214.312736,237.898848 220.028864,234.291552 221.950784,228.38288 L272.619424,84.726048 L317.267808,84.726048 C325.105792,84.726048 331.459392,78.781824 331.459392,71.449312 L331.459392,71.449312 Z"></path>
            </g>
        </g>
    </g>
</svg>